# File created by Blade
# Date/Time:  Tue Apr 07 20:53:18 2015
#---------------------------------------------------------
:version 1.10
:name HOM
:units
  mass 1.0
  length 1.000000
  angle deg
:documentation
     Acclaim Skeleton File
:root
   axis xyz
   order TX TY TZ RX RY RZ
   position 0.000000 0.000000 0.000000
   orientation 0 0 0
:bonedata
   begin
      id 1
      name Spine_dum
      direction 0.000000 1.000000 0.000000
      length 4.885285
      axis 0.0 0.0 0.0 xyz
   end
   begin
      id 2
      name LeftUpLeg_dum
      direction 1.000000 0.000000 0.000000
      length 2.672193
      axis 0.0 0.0 0.0 xyz
   end
   begin
      id 3
      name RightUpLeg_dum
      direction -1.000000 0.000000 0.000000
      length 2.672193
      axis 0.0 0.0 0.0 xyz
   end
   begin
      id 4
      name Spine
      direction 0.000000 1.000000 0.000000
      length 0.000000
      axis 0.0 0.0 0.0 xyz
      dof rx ry rz
   end
   begin
      id 5
      name Spine_dum1
      direction 0.000000 1.000000 0.000000
      length 16.494159
      axis 0.0 0.0 0.0 xyz
   end
   begin
      id 6
      name Spine_dum2
      direction 0.000000 1.000000 0.000000
      length 10.663448
      axis 0.0 0.0 0.0 xyz
   end
   begin
      id 7
      name Spine_dum3
      direction 0.000000 1.000000 0.000000
      length 10.663448
      axis 0.0 0.0 0.0 xyz
   end
   begin
      id 8
      name Head
      direction 0.000000 1.000000 0.000000
      length 4.527550
      axis 0.0 0.0 0.0 xyz
      dof rx ry rz
   end
   begin
      id 9
      name LeftShoulder
      direction 1.000000 0.000000 0.000000
      length 7.531907
      axis 0.0 0.0 -90.0 xyz
      dof rx ry rz
   end
   begin
      id 10
      name LeftArm
      direction 1.000000 0.000000 0.000000
      length 10.229199
      axis 0.0 0.0 -90.0 xyz
      dof rx ry rz
   end
   begin
      id 11
      name LeftForeArm
      direction 1.000000 0.000000 0.000000
      length 8.673495
      axis 0.0 0.0 -90.0 xyz
      dof ry rz rx
   end
   begin
      id 12
      name LeftHand
      direction 0.000000 0.000000 0.000000
      length 0.000000
      axis 0.0 0.0 -90.0 xyz
      dof rx ry rz
   end
   begin
      id 13
      name LeftHand_dum1
      direction 0.000000 0.000000 0.000000
      length 0.000000
      axis 0.0 0.0 -90.0 xyz
   end
   begin
      id 14
      name LeftHand_dum2
      direction 1.000000 0.000000 0.000000
      length 3.937000
      axis 0.0 0.0 -90.0 xyz
   end
   begin
      id 15
      name LeftHandThumb1
      direction 0.000000 0.000000 1.000000
      length 3.937000
      axis 0.0 0.0 -90.0 xyz
      dof rx rz ry
   end
   begin
      id 16
      name RightShoulder
      direction -1.000000 0.000000 0.000000
      length 7.531907
      axis 0.0 0.0 90.0 xyz
      dof rx ry rz
   end
   begin
      id 17
      name RightArm
      direction -1.000000 0.000000 0.000000
      length 10.229199
      axis 0.0 0.0 90.0 xyz
      dof rx ry rz
   end
   begin
      id 18
      name RightForeArm
      direction -1.000000 0.000000 0.000000
      length 8.673495
      axis 0.0 0.0 90.0 xyz
      dof ry rz rx
   end
   begin
      id 19
      name RightHand
      direction 0.000000 0.000000 0.000000
      length 0.000000
      axis 0.0 0.0 90.0 xyz
      dof rx ry rz
   end
   begin
      id 20
      name RightHand_dum1
      direction 0.000000 0.000000 0.000000
      length 0.000000
      axis 0.0 0.0 90.0 xyz
   end
   begin
      id 21
      name RightHand_dum2
      direction -1.000000 0.000000 0.000000
      length 3.937000
      axis 0.0 0.0 90.0 xyz
   end
   begin
      id 22
      name RightHandThumb1
      direction 0.000000 0.000000 1.000000
      length 3.937000
      axis 0.0 0.0 90.0 xyz
      dof rx rz ry
   end
   begin
      id 23
      name LeftUpLeg
      direction 0.000000 -1.000000 0.000000
      length 16.263388
      axis 0.0 0.0 0.0 xyz
      dof rx ry rz
   end
   begin
      id 24
      name LeftLeg
      direction 0.000000 -1.000000 0.000000
      length 14.328163
      axis 0.0 0.0 0.0 xyz
      dof rx ry rz
   end
   begin
      id 25
      name LeftFoot
      direction 0.000000 -0.258819 0.965926
      length 5.031290
      axis 15.0 0.0 0.0 xyz
      dof rx ry rz
   end
   begin
      id 26
      name LeftToeBase
      direction 0.000000 0.000000 1.000000
      length 2.952750
      axis 0.0 0.0 0.0 xyz
      dof rx ry rz
   end
   begin
      id 27
      name RightUpLeg
      direction 0.000000 -1.000000 0.000000
      length 16.263388
      axis 0.0 0.0 0.0 xyz
      dof rx ry rz
   end
   begin
      id 28
      name RightLeg
      direction 0.000000 -1.000000 0.000000
      length 14.328163
      axis 0.0 0.0 0.0 xyz
      dof rx ry rz
   end
   begin
      id 29
      name RightFoot
      direction 0.000000 -0.258819 0.965926
      length 5.031290
      axis 15.0 0.0 0.0 xyz
      dof rx ry rz
   end
   begin
      id 30
      name RightToeBase
      direction 0.000000 0.000000 1.000000
      length 2.952750
      axis 0.0 0.0 0.0 xyz
      dof rx ry rz
   end
:hierarchy
   begin
      root Spine_dum LeftUpLeg_dum RightUpLeg_dum
      Spine_dum Spine
      LeftUpLeg_dum LeftUpLeg
      RightUpLeg_dum RightUpLeg
      Spine Spine_dum1 Spine_dum2 Spine_dum3
      Spine_dum1 Head
      Spine_dum2 LeftShoulder
      Spine_dum3 RightShoulder
      LeftShoulder LeftArm
      LeftArm LeftForeArm
      LeftForeArm LeftHand
      LeftHand LeftHand_dum1 LeftHand_dum2
      LeftHand_dum1 LeftHandThumb1
      RightShoulder RightArm
      RightArm RightForeArm
      RightForeArm RightHand
      RightHand RightHand_dum1 RightHand_dum2
      RightHand_dum1 RightHandThumb1
      LeftUpLeg LeftLeg
      LeftLeg LeftFoot
      LeftFoot LeftToeBase
      RightUpLeg RightLeg
      RightLeg RightFoot
      RightFoot RightToeBase
   end

# File created by Blade
# Date/Time:  Tue Apr 07 20:53:11 2015
# Frame Rate: 120.000 fps
#------------------------------------------------------
:FULLY-SPECIFIED
:DEGREES
39
root -2.816000 33.126450 -0.976843 7.246105 -2.349334 -3.746691
Spine -6.273770 -7.197731 0.852644
Head 20.664963 -21.323565 3.105853
LeftShoulder -21.616779 43.343646 17.730369
LeftArm 56.656195 -51.698496 -69.370838
LeftForeArm 9.317275 -0.000000 -1.827430
LeftHand 5.757083 0.000000 9.019989
LeftHandThumb1 -26.253704 0.000000 33.147579
RightShoulder -8.867165 0.874067 -27.443477
RightArm 12.924469 17.921955 46.886009
RightForeArm -10.779430 0.000000 0.958811
RightHand 6.477662 -0.000000 -3.735070
RightHandThumb1 -24.326973 -0.000000 -32.862282
LeftUpLeg 0.022053 3.053328 2.955292
LeftLeg -6.252598 -0.000000 0.000000
LeftFoot -2.294274 8.910937 -17.038381
LeftToeBase -9.562916 -0.000000 0.000000
RightUpLeg -4.099387 -3.154970 6.184583
RightLeg 0.279248 -0.000000 -0.000000
RightFoot -7.583325 -18.065456 6.712717
RightToeBase -2.723212 -0.000000 0.000000
40
root -2.839217 33.131513 -0.984987 7.372117 -2.711125 -3.788107
Spine -6.294179 -7.215097 0.898973
Head 21.006110 -22.064730 3.112991
LeftShoulder -21.652379 43.659769 17.401038
LeftArm 56.573022 -51.065617 -69.590680
LeftForeArm 9.154690 -0.000000 -1.906026
LeftHand 5.907971 0.000000 8.881205
LeftHandThumb1 -26.253704 0.000000 33.147579
RightShoulder -8.808168 0.649436 -27.096241
RightArm 13.083299 17.579165 47.445911
RightForeArm -10.271267 -0.000000 0.877071
RightHand 6.581972 0.000000 -3.834112
RightHandThumb1 -24.326973 -0.000000 -32.862282
LeftUpLeg -0.063729 3.362549 2.985533
LeftLeg -6.253918 -0.000000 0.000000
LeftFoot -2.344446 9.056107 -16.873105
LeftToeBase -9.230166 -0.000000 0.000000
RightUpLeg -4.339416 -3.497999 6.298692
RightLeg 0.476254 -0.000000 -0.000000
RightFoot -7.646358 -18.870799 6.373402
RightToeBase -2.571704 -0.000000 0.000000
41
root -2.861214 33.134756 -0.993577 7.500088 -3.041533 -3.795105
Spine -6.297951 -7.262645 0.915263
Head 21.295089 -22.797447 3.168992
LeftShoulder -21.732858 43.918747 17.007339
LeftArm 56.424311 -50.341426 -69.630466
LeftForeArm 9.154929 -0.000000 -2.060562
LeftHand 5.858589 0.000000 8.759709
LeftHandThumb1 -26.253704 0.000000 33.147579
RightShoulder -8.777893 0.328678 -26.758426
RightArm 13.305203 17.243274 48.148219
RightForeArm -9.775770 -0.000000 0.823492
RightHand 6.609227 -0.000000 -3.727535
RightHandThumb1 -24.326973 -0.000000 -32.862282
LeftUpLeg -0.170171 3.662682 2.987895
LeftLeg -6.237859 -0.000000 0.000000
LeftFoot -2.283829 9.061732 -17.112379
LeftToeBase -9.530446 -0.000000 0.000000
RightUpLeg -4.527060 -3.759693 6.374316
RightLeg 0.545328 -0.000000 -0.000000
RightFoot -7.724191 -19.830396 6.285920
RightToeBase -2.705532 -0.000000 0.000000
42
root -2.885247 33.138190 -1.007628 7.644865 -3.421305 -3.787920
Spine -6.311048 -7.290676 0.898900
Head 21.582371 -23.521885 3.251284
LeftShoulder -21.767232 44.110302 16.678962
LeftArm 56.246577 -49.596179 -69.745799
LeftForeArm 9.086201 -0.000000 -2.203511
LeftHand 5.760073 -0.000000 8.668435
LeftHandThumb1 -26.253704 0.000000 33.147579
RightShoulder -8.712129 0.073394 -26.397830
RightArm 13.409561 16.751178 48.809523
RightForeArm -9.183997 -0.000000 0.843615
RightHand 6.764348 -0.000000 -2.974452
RightHandThumb1 -24.326973 -0.000000 -32.862282
LeftUpLeg -0.310444 3.989993 2.969180
LeftLeg -6.183443 -0.000000 0.000000
LeftFoot -2.355347 9.171236 -16.990815
LeftToeBase -9.166543 -0.000000 0.000000
RightUpLeg -4.776625 -4.070737 6.438930
RightLeg 0.693757 -0.000000 -0.000000
RightFoot -7.782102 -20.654103 6.075077
RightToeBase -2.788180 -0.000000 0.000000
43
root -2.910473 33.139536 -1.013524 7.744183 -3.798560 -3.810926
Spine -6.288485 -7.323977 0.929385
Head 21.888930 -24.237577 3.293407
LeftShoulder -21.867817 44.398235 16.241610
LeftArm 56.123806 -48.752727 -69.808128
LeftForeArm 8.932741 -0.000000 -2.384328
LeftHand 5.549431 0.000000 8.339968
LeftHandThumb1 -26.253704 0.000000 33.147579
RightShoulder -8.685928 -0.273349 -26.057052
RightArm 13.637564 16.303009 49.629658
RightForeArm -8.716566 -0.000000 0.909585
RightHand 6.606398 -0.000000 -2.586540
RightHandThumb1 -24.326973 -0.000000 -32.862282
LeftUpLeg -0.376619 4.286914 2.991778
LeftLeg -6.159993 -0.000000 0.000000
LeftFoot -2.339440 9.197999 -17.244582
LeftToeBase -9.448069 -0.000000 0.000000
RightUpLeg -4.927365 -4.407860 6.527250
RightLeg 0.760068 -0.000000 -0.000000
RightFoot -7.861415 -21.466068 6.005312
RightToeBase -2.806356 -0.000000 0.000000
44
root -2.940381 33.141062 -1.021949 7.857952 -4.149543 -3.830214
Spine -6.258091 -7.305144 0.929950
Head 22.133323 -25.044999 3.356676
LeftShoulder -21.840215 44.473706 15.951538
LeftArm 55.712492 -47.727205 -69.584471
LeftForeArm 8.873307 0.000000 -2.581204
LeftHand 5.500722 -0.000000 8.364959
LeftHandThumb1 -26.253704 0.000000 33.147579
RightShoulder -8.805949 -0.576132 -25.686518
RightArm 13.852366 15.629046 50.436492
RightForeArm -8.022193 -0.000000 0.921885
RightHand 6.975798 -0.000000 -2.489963
RightHandThumb1 -24.326973 -0.000000 -32.862282
LeftUpLeg -0.462845 4.529462 3.020298
LeftLeg -6.130121 -0.000000 0.000000
LeftFoot -2.417810 9.344690 -17.127629
LeftToeBase -9.208104 -0.000000 0.000000
RightUpLeg -5.095240 -4.854539 6.625996
RightLeg 0.821173 -0.000000 -0.000000
RightFoot -7.886014 -22.248339 5.853374
RightToeBase -2.881564 -0.000000 0.000000
